<?xml version="1.0" encoding="UTF-8"?>
<svg width="24px" height="24px" viewBox="0 0 24 24" version="1.1" xmlns="http://www.w3.org/2000/svg">
    <g stroke="none" stroke-width="1" fill="none" fill-rule="evenodd">
        <path d="M13,3 C8.03,3 4,7.03 4,12 L1,12 L4.89,15.89 L4.96,16.03 L9,12 L6,12 C6,8.13 9.13,5 13,5 C16.87,5 20,8.13 20,12 C20,15.87 16.87,19 13,19 C10.24,19 7.82,17.34 6.84,15 L4.76,16.09 C6.03,18.3 8.34,20 13,20 C17.42,20 21,16.42 21,12 C21,7.58 17.42,4 13,4 L13,3 Z M12,8 L12,13 L16.28,15.54 L16.86,14.33 L13.5,12.25 L13.5,8 L12,8 Z" fill="#495057"/>
    </g>
</svg> 